<svg xmlns="http://www.w3.org/2000/svg" viewBox="0 0 434.99 241.69"><defs><style>.cls-1{fill:#fff;}</style></defs><title>Asset 3Filmby Oasis</title><g id="Layer_2" data-name="Layer 2"><g id="Layer_1-2" data-name="Layer 1"><path class="cls-1" d="M263.87,61.82a2.55,2.55,0,0,0,.07-.57l-8.6,11.91q-10.92,15.11-22.79,29.49a100.74,100.74,0,0,1-10,10.91,13.17,13.17,0,0,1-3.2,2.29c-3.26,1.52-6.19-.55-5.94-4.14.29-4.17,2.09-7.83,3.77-11.54.2-.46.63-.86.33-1.52-4,.36-8.09.18-12.15.18a2.57,2.57,0,0,0-2.71,1.76c-2.52,5.92-5.22,11.77-7.6,17.75-.86,2.16-.93,4.62-1.45,6.92-3.57,15.82-9.26,31-15.35,45.94-5.67,13.94-12,27.61-18.24,41.29-4,8.66-8,17.29-12.52,25.67a11.12,11.12,0,0,1-1.52,2.29c-1,1.07-2.26,1.74-3.68.78s-1.3-2.16-.74-3.51c2.55-6.19,5.08-12.4,7.65-18.58q9.17-22,18.35-44,10.67-25.44,21.44-50.85a30.93,30.93,0,0,0,2.41-9.47c.43-4.78.91-9.55.2-14.35-.13-.88-.25-1.41-1.4-1.4-13.07.13-26.15.19-39.23.27-18.4.11-36.81.3-55.21.34-22.09,0-44.18.07-66.27-.13-7.86-.07-15.77-.18-23.54-1.8C3.55,97.21,1.3,96.4,0,94V91.67c1.54-3,4.33-4.72,7.14-6.28,10.2-5.67,21.06-9.84,32-13.75a366.54,366.54,0,0,1,48.9-13.73A218.25,218.25,0,0,1,115.14,54c12.22-1,24.39-.79,36.43,1.67,11.86,2.43,22.68,7,31.42,15.78a44.68,44.68,0,0,1,11.68,21.33c.26,1,0,2.54,1.25,2.92a9.67,9.67,0,0,0,4.69,0c1-.2,1.13-1.38,1.48-2.2,2.71-6.27,5.34-12.58,8.06-18.85,5.74-13.2,11.59-26.35,17.27-39.57,4.19-9.72,8.28-19.47,12.72-29.07.71-1.55,1.45-3.09,2.27-4.59a2.24,2.24,0,0,1,3.14-1.2c1.42.66,1.51,1.89,1,3.19-4.39,10.62-9.22,21.06-14,31.52Q221.91,58.19,211.3,81.41c-1.88,4.12-3.62,8.31-5.49,12.44-.63,1.37-.2,1.75,1.17,1.7,3.87-.14,7.75-.26,11.62-.34A2.54,2.54,0,0,0,220.68,94c1-1.27,1.7-3.29,3.95-2.33,1.44.61,1.51,2.19.23,4.89a115.67,115.67,0,0,0-4.8,10.59c-.25.69-.84,1.37-.33,2.31a7.5,7.5,0,0,0,2.8-2.09,279.58,279.58,0,0,0,27.55-32.16,386.68,386.68,0,0,0,23.66-34.67c1.87-3.16,3.38-6.54,5.05-9.82a7.31,7.31,0,0,1,1.54-2.26,2.18,2.18,0,0,1,3-.28,2.13,2.13,0,0,1,.42,3c-.86,1.48-1.73,2.95-2.64,4.4-6.9,10.91-18,34.14-18,34.14-7.92,17.69-16.05,33.84-16.24,44a2.13,2.13,0,0,1-2,2.65,2.31,2.31,0,0,1-2.78-2.15,14,14,0,0,1,.75-6ZM173,96.32c5.32-.14,10.64.17,16-.28,1.44-.13,2-.45,1.64-2a40.15,40.15,0,0,0-5.25-12.68,45.79,45.79,0,0,0-19.73-17c-11.75-5.6-24.37-7.22-37.17-7.56a163,163,0,0,0-27.28,2,298.44,298.44,0,0,0-45,10.37A338.28,338.28,0,0,0,21.58,81.78,85.82,85.82,0,0,0,5.83,90.29c-.88.62-2.32,1.32-2.11,2.37S5.56,94,6.67,94.24A73.41,73.41,0,0,0,20,95.82c8.52.45,17.06.76,25.59.83,16.82.15,33.63.13,50.45.13C121.67,96.77,147.36,96.85,173,96.32Zm11.6,46.48q-12.73,29.53-24.55,59.38C166.57,190.52,183.09,150.52,184.64,142.8Zm11.62-35.52c1-2.51,1.87-4.47,2.67-6.44.21-.52.81-1.13.3-1.61-.73-.68-1.74-.34-2.63-.26s-.82.75-.78,1.35C195.93,102.44,196.08,104.56,196.26,107.28Z"/><path class="cls-1" d="M234.44,78.39a3.73,3.73,0,0,1-3.84,3.89c-2.15,0-4.33-2-4.31-3.91a4.3,4.3,0,0,1,4.19-4A3.72,3.72,0,0,1,234.44,78.39Z"/><path class="cls-1" d="M304.62,96.87c-.26.62,1.86-3.93,1.37-3.47-3,2.82-14.76,9.36-18.25,11.65a45.52,45.52,0,0,1,1.73-4.58,26.14,26.14,0,0,0,1.9-5.59,3.24,3.24,0,0,0-5.22-3.36c-.85.61-1.71,1.23-2.5,1.92-2,1.73-3.89,3.5-6.08,5.49.7-1.75,1.29-3.18,1.86-4.62a3.51,3.51,0,0,0-.9-3.64,2.89,2.89,0,0,0-3.28-.65,13.82,13.82,0,0,0-4.61,3c-2.47,2-4.7,4.32-7.12,6.46.89-2,2-3.83,2.92-5.74.76-1.55.2-2.9-1.24-3.35s-2.27.39-2.9,1.46a180.91,180.91,0,0,0-9.06,18.37,2.67,2.67,0,0,0,1.24,3.51,2.73,2.73,0,0,0,3.27-1.17A113.08,113.08,0,0,1,270.3,98.65c.34-.31.63-.84,1.43-.52-.87,1.7-1.73,3.32-2.52,5-1.08,2.25-2.49,4.35-3.06,6.82a2.6,2.6,0,0,0,2.22,3.47,3.05,3.05,0,0,0,3.17-1.13c1.67-2,3.26-4.13,5-6.13a46.52,46.52,0,0,1,7.54-7.7,9,9,0,0,1-.58,1.82c-1,2.56-2.22,5.08-2.22,7.91,0,2.52,1,3.57,3.42,4,1.64.28,2.95-.5,4.21-1.32S302.28,102.57,303,102Z"/><path class="cls-1" d="M368.16,108.82l0-5c.63-6.74-10.73-4.24-10.73-4.24l-38.58,8.61c-6.49,3-5.37-4.87-5.37-4.87l.5-6.61c-1-6.62-8-3.31-8-3.31-.69.47-.68,3-1.37,3.47L303,102c1.92-1.25,2.07-1.36,4-2.61.57-.37,2-1.53,2-1.53l.36,10.67c.75,7.24,14.36,2.74,14.36,2.74l28.34-7s-7.24,2,.62,0,11.49-.5,11.49-.5l-.13,4.62c.63,4.49,4.5,3.8,4.5,3.8l52.81-2.3,12.48-2.12Z"/><path class="cls-1" d="M241.78,143.85q5.31,2,5.31,7.43a8.17,8.17,0,0,1-3.09,6.77,10,10,0,0,1-3.64,1.76,20.51,20.51,0,0,1-5.11.54H213.71v-.73a2.44,2.44,0,0,0,1.15-.6,1.6,1.6,0,0,0,.33-1.09V131.26a1.57,1.57,0,0,0-.33-1.08,2.28,2.28,0,0,0-1.15-.6v-.74H235a21.16,21.16,0,0,1,4.94.46,8.54,8.54,0,0,1,3.28,1.57,7.57,7.57,0,0,1,2.8,6.33A6.89,6.89,0,0,1,241.78,143.85Zm-19.71-2.47h12.07a6.66,6.66,0,0,0,3.83-.81,3.36,3.36,0,0,0,1.23-2.87,3.26,3.26,0,0,0-1.16-2.82,6.74,6.74,0,0,0-3.9-.85H222.07Zm0,13.78h11.68a9.2,9.2,0,0,0,4.69-.9,3.71,3.71,0,0,0,1.64-3.39,3.76,3.76,0,0,0-1.64-3.4,9.1,9.1,0,0,0-4.69-.9H222.07Z"/><path class="cls-1" d="M267.51,149v9a1.7,1.7,0,0,0,.32,1.1,2.54,2.54,0,0,0,1.16.63v.62h-9.14v-.62a2.28,2.28,0,0,0,1.15-.61,1.68,1.68,0,0,0,.32-1.12v-9l-7.66-10.55a14.89,14.89,0,0,0-2.07-2.43,4.18,4.18,0,0,0-1.83-.89v-.64h11.65v.64q-1.5.39-1.5,1.41a5.12,5.12,0,0,0,1.08,2l3.76,5.2,3.66-5.2a5.21,5.21,0,0,0,1.09-2.05c0-.65-.49-1.11-1.48-1.39l0-.64h11.08v.64a4.22,4.22,0,0,0-1.84.89,15.48,15.48,0,0,0-2.06,2.43Z"/><path class="cls-1" d="M309.77,133.94a16.47,16.47,0,0,1,10.28,3.14A12.56,12.56,0,0,1,325,147.63a12.14,12.14,0,0,1-4.92,10.14,18.25,18.25,0,0,1-20.47,0,13.29,13.29,0,0,1,0-20.69A16.81,16.81,0,0,1,309.77,133.94Zm0,4.9a8.73,8.73,0,0,0-6.52,2.56,8.9,8.9,0,0,0,0,12,9.55,9.55,0,0,0,13.06,0,8.08,8.08,0,0,0,2.34-5.89,8.28,8.28,0,0,0-2.34-6.14A9,9,0,0,0,309.79,138.84Z"/><path class="cls-1" d="M349.79,153.89h-11.9l-1.34,2.82a4.06,4.06,0,0,0-.48,1.59c0,.74.49,1.21,1.48,1.41v.64h-9.5v-.64a2.45,2.45,0,0,0,1.3-.53,5.68,5.68,0,0,0,1-1.55l9.44-19.12a4.46,4.46,0,0,0,.53-1.89c0-.63-.43-1.12-1.29-1.48v-.64h10v.64a1.68,1.68,0,0,0-1.27,1.57,4.19,4.19,0,0,0,.58,1.87l9.79,18.54a9,9,0,0,0,1.27,2,2.65,2.65,0,0,0,1.41.63v.64H350.29v-.64c1-.17,1.5-.64,1.5-1.4a3.89,3.89,0,0,0-.58-1.78Zm-1.87-3.62L343.69,142l-4,8.32Z"/><path class="cls-1" d="M389.15,136.83l-3.12,6-.55-.3a1.56,1.56,0,0,0-.49-1.2,10.24,10.24,0,0,0-3.88-1.94,18.42,18.42,0,0,0-5.19-.76,11.78,11.78,0,0,0-4,.62c-1.67.61-2.5,1.47-2.5,2.61a1.65,1.65,0,0,0,1.2,1.61,19.64,19.64,0,0,0,4.64.75l3.65.28a17.08,17.08,0,0,1,7.27,1.84,7.22,7.22,0,0,1-.13,12.36q-3.4,2.19-9.19,2.19a27,27,0,0,1-11.29-2.47,1.61,1.61,0,0,0-.63-.16,1.06,1.06,0,0,0-.85.55l-.58-.23,2.66-6.33.57.24v.18a1.33,1.33,0,0,0,.47,1,10.2,10.2,0,0,0,4,1.76,21.87,21.87,0,0,0,5.61.75,13.93,13.93,0,0,0,4.39-.64c1.6-.53,2.4-1.37,2.4-2.54a2,2,0,0,0-1.66-2,20.76,20.76,0,0,0-4-.62l-3.62-.3a30,30,0,0,1-4.48-.6,9.14,9.14,0,0,1-2.7-1.09,6.29,6.29,0,0,1-2.31-2.51,7.37,7.37,0,0,1-.83-3.49,7.18,7.18,0,0,1,3.64-6.49,15.56,15.56,0,0,1,8.22-2,20.13,20.13,0,0,1,5,.59,32.18,32.18,0,0,1,5.48,2.07,4,4,0,0,0,1.32.44,1.62,1.62,0,0,0,.94-.51Z"/><path class="cls-1" d="M402.34,136.85V158a1.59,1.59,0,0,0,.32,1.09,2.36,2.36,0,0,0,1.15.64v.64h-9.14v-.64a2.18,2.18,0,0,0,1.14-.6,1.62,1.62,0,0,0,.34-1.11V136.85a1.6,1.6,0,0,0-.32-1.08,2.54,2.54,0,0,0-1.16-.63v-.64h9.14v.64a2.36,2.36,0,0,0-1.15.61A1.64,1.64,0,0,0,402.34,136.85Z"/><path class="cls-1" d="M434.51,136.83l-3.12,6-.56-.3a1.55,1.55,0,0,0-.48-1.2,10.24,10.24,0,0,0-3.88-1.94,18.42,18.42,0,0,0-5.19-.76,11.88,11.88,0,0,0-4,.62c-1.66.61-2.49,1.47-2.49,2.61a1.65,1.65,0,0,0,1.2,1.61,19.64,19.64,0,0,0,4.64.75l3.65.28a17.08,17.08,0,0,1,7.27,1.84,7.22,7.22,0,0,1-.13,12.36q-3.4,2.19-9.19,2.19A27,27,0,0,1,411,158.44a1.61,1.61,0,0,0-.63-.16,1.06,1.06,0,0,0-.85.55l-.58-.23,2.66-6.33.57.24v.18a1.35,1.35,0,0,0,.46,1,10.33,10.33,0,0,0,4,1.76,21.87,21.87,0,0,0,5.61.75,13.93,13.93,0,0,0,4.39-.64c1.6-.53,2.4-1.37,2.4-2.54a2,2,0,0,0-1.66-2,20.9,20.9,0,0,0-4-.62l-3.62-.3a30,30,0,0,1-4.48-.6,9,9,0,0,1-2.7-1.09,6.29,6.29,0,0,1-2.31-2.51,7.37,7.37,0,0,1-.83-3.49A7.18,7.18,0,0,1,413,136a15.56,15.56,0,0,1,8.22-2,20.13,20.13,0,0,1,5,.59,32.18,32.18,0,0,1,5.48,2.07A4,4,0,0,0,433,137a1.62,1.62,0,0,0,.95-.51Z"/></g></g></svg>